<mxfile host="app.diagrams.net" modified="2023-06-04T12:06:36.231Z" agent="Mozilla/5.0 (Windows NT 10.0; Win64; x64) AppleWebKit/537.36 (KHTML, like Gecko) Chrome/112.0.0.0 Safari/537.36 OPR/98.0.0.0" etag="uzJUO7KtvoRHXMiNzL14" version="21.3.7" type="device">
  <diagram name="Página-1" id="KFYXKKDVgw0Kl8xUUUD6">
    <mxGraphModel dx="952" dy="764" grid="1" gridSize="10" guides="1" tooltips="1" connect="1" arrows="1" fold="1" page="1" pageScale="1" pageWidth="827" pageHeight="1169" math="0" shadow="0">
      <root>
        <mxCell id="0" />
        <mxCell id="1" parent="0" />
        <mxCell id="cz3DpiQg_1oCiOcD7HWy-1" value="Cliente" style="shape=umlActor;verticalLabelPosition=bottom;verticalAlign=top;html=1;outlineConnect=0;" vertex="1" parent="1">
          <mxGeometry x="40" y="130" width="30" height="60" as="geometry" />
        </mxCell>
        <mxCell id="cz3DpiQg_1oCiOcD7HWy-2" value="Administrador" style="shape=umlActor;verticalLabelPosition=bottom;verticalAlign=top;html=1;outlineConnect=0;" vertex="1" parent="1">
          <mxGeometry x="320" y="130" width="30" height="60" as="geometry" />
        </mxCell>
        <mxCell id="cz3DpiQg_1oCiOcD7HWy-7" style="edgeStyle=orthogonalEdgeStyle;rounded=0;orthogonalLoop=1;jettySize=auto;html=1;entryX=0.5;entryY=0.5;entryDx=0;entryDy=0;entryPerimeter=0;" edge="1" parent="1" source="cz3DpiQg_1oCiOcD7HWy-3" target="cz3DpiQg_1oCiOcD7HWy-1">
          <mxGeometry relative="1" as="geometry">
            <Array as="points">
              <mxPoint x="150" y="100" />
              <mxPoint x="150" y="160" />
            </Array>
          </mxGeometry>
        </mxCell>
        <mxCell id="cz3DpiQg_1oCiOcD7HWy-3" value="Ver el menú" style="ellipse;whiteSpace=wrap;html=1;" vertex="1" parent="1">
          <mxGeometry x="180" y="80" width="90" height="40" as="geometry" />
        </mxCell>
        <mxCell id="cz3DpiQg_1oCiOcD7HWy-8" style="edgeStyle=orthogonalEdgeStyle;rounded=0;orthogonalLoop=1;jettySize=auto;html=1;entryX=0.5;entryY=0.5;entryDx=0;entryDy=0;entryPerimeter=0;" edge="1" parent="1" source="cz3DpiQg_1oCiOcD7HWy-4" target="cz3DpiQg_1oCiOcD7HWy-1">
          <mxGeometry relative="1" as="geometry">
            <Array as="points" />
          </mxGeometry>
        </mxCell>
        <mxCell id="cz3DpiQg_1oCiOcD7HWy-4" value="Pedir platos" style="ellipse;whiteSpace=wrap;html=1;" vertex="1" parent="1">
          <mxGeometry x="180" y="140" width="90" height="40" as="geometry" />
        </mxCell>
        <mxCell id="cz3DpiQg_1oCiOcD7HWy-9" style="edgeStyle=orthogonalEdgeStyle;rounded=0;orthogonalLoop=1;jettySize=auto;html=1;entryX=0.5;entryY=0.5;entryDx=0;entryDy=0;entryPerimeter=0;" edge="1" parent="1" source="cz3DpiQg_1oCiOcD7HWy-5" target="cz3DpiQg_1oCiOcD7HWy-1">
          <mxGeometry relative="1" as="geometry">
            <Array as="points">
              <mxPoint x="150" y="225" />
              <mxPoint x="150" y="160" />
            </Array>
          </mxGeometry>
        </mxCell>
        <mxCell id="cz3DpiQg_1oCiOcD7HWy-5" value="Recibir platos" style="ellipse;whiteSpace=wrap;html=1;" vertex="1" parent="1">
          <mxGeometry x="180" y="200" width="90" height="50" as="geometry" />
        </mxCell>
        <mxCell id="cz3DpiQg_1oCiOcD7HWy-10" style="edgeStyle=orthogonalEdgeStyle;rounded=0;orthogonalLoop=1;jettySize=auto;html=1;entryX=0.5;entryY=0.5;entryDx=0;entryDy=0;entryPerimeter=0;" edge="1" parent="1" source="cz3DpiQg_1oCiOcD7HWy-6" target="cz3DpiQg_1oCiOcD7HWy-1">
          <mxGeometry relative="1" as="geometry">
            <Array as="points">
              <mxPoint x="150" y="290" />
              <mxPoint x="150" y="160" />
            </Array>
          </mxGeometry>
        </mxCell>
        <mxCell id="cz3DpiQg_1oCiOcD7HWy-6" value="Pagar" style="ellipse;whiteSpace=wrap;html=1;" vertex="1" parent="1">
          <mxGeometry x="180" y="270" width="80" height="40" as="geometry" />
        </mxCell>
        <mxCell id="cz3DpiQg_1oCiOcD7HWy-19" style="edgeStyle=orthogonalEdgeStyle;rounded=0;orthogonalLoop=1;jettySize=auto;html=1;entryX=0.5;entryY=0.5;entryDx=0;entryDy=0;entryPerimeter=0;" edge="1" parent="1" source="cz3DpiQg_1oCiOcD7HWy-11" target="cz3DpiQg_1oCiOcD7HWy-2">
          <mxGeometry relative="1" as="geometry">
            <mxPoint x="340" y="160" as="targetPoint" />
            <Array as="points">
              <mxPoint x="546" y="160" />
            </Array>
          </mxGeometry>
        </mxCell>
        <mxCell id="cz3DpiQg_1oCiOcD7HWy-11" value="Crear un nuevo plato" style="ellipse;whiteSpace=wrap;html=1;" vertex="1" parent="1">
          <mxGeometry x="486" y="40" width="120" height="50" as="geometry" />
        </mxCell>
        <mxCell id="cz3DpiQg_1oCiOcD7HWy-18" style="edgeStyle=orthogonalEdgeStyle;rounded=0;orthogonalLoop=1;jettySize=auto;html=1;entryX=0.5;entryY=0.5;entryDx=0;entryDy=0;entryPerimeter=0;" edge="1" parent="1" source="cz3DpiQg_1oCiOcD7HWy-12" target="cz3DpiQg_1oCiOcD7HWy-2">
          <mxGeometry relative="1" as="geometry">
            <Array as="points">
              <mxPoint x="420" y="160" />
            </Array>
          </mxGeometry>
        </mxCell>
        <mxCell id="cz3DpiQg_1oCiOcD7HWy-12" value="Editar un plato" style="ellipse;whiteSpace=wrap;html=1;" vertex="1" parent="1">
          <mxGeometry x="376" y="40" width="90" height="50" as="geometry" />
        </mxCell>
        <mxCell id="cz3DpiQg_1oCiOcD7HWy-20" style="edgeStyle=orthogonalEdgeStyle;rounded=0;orthogonalLoop=1;jettySize=auto;html=1;entryX=0.5;entryY=0.5;entryDx=0;entryDy=0;entryPerimeter=0;" edge="1" parent="1" source="cz3DpiQg_1oCiOcD7HWy-13" target="cz3DpiQg_1oCiOcD7HWy-2">
          <mxGeometry relative="1" as="geometry">
            <Array as="points">
              <mxPoint x="676" y="160" />
            </Array>
          </mxGeometry>
        </mxCell>
        <mxCell id="cz3DpiQg_1oCiOcD7HWy-13" value="Eliminar un plato" style="ellipse;whiteSpace=wrap;html=1;" vertex="1" parent="1">
          <mxGeometry x="626" y="40" width="100" height="50" as="geometry" />
        </mxCell>
        <mxCell id="cz3DpiQg_1oCiOcD7HWy-21" style="edgeStyle=orthogonalEdgeStyle;rounded=0;orthogonalLoop=1;jettySize=auto;html=1;entryX=0.5;entryY=0.5;entryDx=0;entryDy=0;entryPerimeter=0;" edge="1" parent="1" source="cz3DpiQg_1oCiOcD7HWy-14" target="cz3DpiQg_1oCiOcD7HWy-2">
          <mxGeometry relative="1" as="geometry">
            <Array as="points">
              <mxPoint x="420" y="160" />
            </Array>
          </mxGeometry>
        </mxCell>
        <mxCell id="cz3DpiQg_1oCiOcD7HWy-14" value="Ver los pedidos" style="ellipse;whiteSpace=wrap;html=1;" vertex="1" parent="1">
          <mxGeometry x="366" y="270" width="110" height="40" as="geometry" />
        </mxCell>
        <mxCell id="cz3DpiQg_1oCiOcD7HWy-22" style="edgeStyle=orthogonalEdgeStyle;rounded=0;orthogonalLoop=1;jettySize=auto;html=1;entryX=0.5;entryY=0.5;entryDx=0;entryDy=0;entryPerimeter=0;" edge="1" parent="1" source="cz3DpiQg_1oCiOcD7HWy-15" target="cz3DpiQg_1oCiOcD7HWy-2">
          <mxGeometry relative="1" as="geometry">
            <Array as="points">
              <mxPoint x="546" y="160" />
            </Array>
          </mxGeometry>
        </mxCell>
        <mxCell id="cz3DpiQg_1oCiOcD7HWy-15" value="Enviar los pedidos" style="ellipse;whiteSpace=wrap;html=1;" vertex="1" parent="1">
          <mxGeometry x="486" y="265" width="120" height="50" as="geometry" />
        </mxCell>
        <mxCell id="cz3DpiQg_1oCiOcD7HWy-23" style="edgeStyle=orthogonalEdgeStyle;rounded=0;orthogonalLoop=1;jettySize=auto;html=1;entryX=0.5;entryY=0.5;entryDx=0;entryDy=0;entryPerimeter=0;" edge="1" parent="1" source="cz3DpiQg_1oCiOcD7HWy-16" target="cz3DpiQg_1oCiOcD7HWy-2">
          <mxGeometry relative="1" as="geometry">
            <Array as="points">
              <mxPoint x="676" y="160" />
            </Array>
          </mxGeometry>
        </mxCell>
        <mxCell id="cz3DpiQg_1oCiOcD7HWy-16" value="Crear nueva mesa" style="ellipse;whiteSpace=wrap;html=1;" vertex="1" parent="1">
          <mxGeometry x="616" y="265" width="120" height="50" as="geometry" />
        </mxCell>
        <mxCell id="cz3DpiQg_1oCiOcD7HWy-24" style="edgeStyle=orthogonalEdgeStyle;rounded=0;orthogonalLoop=1;jettySize=auto;html=1;entryX=0.5;entryY=0.5;entryDx=0;entryDy=0;entryPerimeter=0;" edge="1" parent="1" source="cz3DpiQg_1oCiOcD7HWy-17" target="cz3DpiQg_1oCiOcD7HWy-2">
          <mxGeometry relative="1" as="geometry" />
        </mxCell>
        <mxCell id="cz3DpiQg_1oCiOcD7HWy-17" value="Hacer cuenta" style="ellipse;whiteSpace=wrap;html=1;" vertex="1" parent="1">
          <mxGeometry x="710" y="140" width="90" height="40" as="geometry" />
        </mxCell>
      </root>
    </mxGraphModel>
  </diagram>
</mxfile>
